# xmcd CD database file
#
# Track frame offsets:
#	150
#	20652
#	37490
#	56647
#	92763
#	129542
#	158130
#
# Disc length: 2299 seconds
#
# Revision: 0
# Processed by: cddbd v1.5PL3 Copyright (c) Steve Scherf et al.
# Submitted via: CDex 1.50
#
DISCID=5f08f907
DTITLE=バンバンバザール - Bootleg (pink)
DYEAR=2000
DGENRE=Blues
TTITLE0=色男で雨男
TTITLE1=彼女待ってただけなのさ
TTITLE2=手紙でも書こう
TTITLE3=遠い君の家
TTITLE4=こないだのことさ
TTITLE5=シカーダ
TTITLE6=コンビニエンス
EXTD=YEAR: 2000
EXTT0=
EXTT1=
EXTT2=
EXTT3=
EXTT4=
EXTT5=
EXTT6=
PLAYORDER=
